<?xml version="1.0" encoding="UTF-8" standalone="no" ?>
<!DOCTYPE svg PUBLIC "-//W3C//DTD SVG 1.1//EN" "http://www.w3.org/Graphics/SVG/1.1/DTD/svg11.dtd">
<svg xmlns="http://www.w3.org/2000/svg" xmlns:xlink="http://www.w3.org/1999/xlink" version="1.1" width="330.4986669107658" height="95.51994961874243" viewBox="0 0 330.4987 95.5199" xml:space="preserve">
<desc>Created with Fabric.js 6.7.1</desc>
<defs>
</defs>
<g transform="matrix(1 0 0 1 165.2493 47.76)"  >
<g style=""   >
		<g transform="matrix(0.4529 0 0 0.4529 -101.281 2.9938)"  >
<path style="stroke: none; stroke-width: 0; stroke-dasharray: none; stroke-linecap: round; stroke-dashoffset: 0; stroke-linejoin: round; stroke-miterlimit: 4; fill: rgb(241,244,245); fill-rule: nonzero; opacity: 1;" vector-effect="non-scaling-stroke"  transform=" translate(0, 0)" d="M 136.2238 -98.5111 C 139.2238 -95.8861 139.2238 -95.8861 141.2238 -92.5111 C 141.2971 -88.8487 140.6557 -87.1423 138.5988 -84.1361 C 135.2703 -81.8586 133.173 -81.9469 129.2238 -82.5111 C 127.8905 -83.8444 126.5572 -85.1777 125.2238 -86.5111 C 98.1305 -84.6714 68.0965 -62.7008 48.2238 -45.5111 C 47.4543 -44.8524 46.6847 -44.1936 45.8918 -43.515 C 34.1071 -33.1765 22.6952 -22.0237 13.2238 -9.5111 C 12.8086 -8.9722 12.3934 -8.4334 11.9655 -7.8783 C -9.5799 20.1473 -25.4565 52.4154 -36.0018 86.0924 C -37.7166 91.3484 -39.2164 95.0244 -43.7762 98.4889 C -48.0079 99.169 -49.9802 98.9734 -53.6512 96.7389 C -55.8243 94.4379 -56.1873 93.4709 -56.7762 90.4889 C -57.5376 90.5099 -58.299 90.5308 -59.0835 90.5524 C -62.5434 90.6357 -66.0031 90.6876 -69.4637 90.7389 C -70.6618 90.7724 -71.86 90.806 -73.0945 90.8405 C -74.2515 90.8534 -75.4084 90.8663 -76.6004 90.8795 C -77.6635 90.9005 -78.7265 90.9214 -79.8218 90.943 C -83.5445 90.3708 -85.1257 89.1235 -87.7762 86.4889 C -89.4836 83.6444 -90.0236 81.5732 -90.0032 78.2712 C -90.0031 77.4506 -90.0029 76.6301 -90.0028 75.7846 C -89.9924 74.9085 -89.9821 74.0323 -89.9715 73.1296 C -89.9687 72.2252 -89.9658 71.3208 -89.9629 70.389 C -89.9517 67.5055 -89.9266 64.6223 -89.9012 61.7389 C -89.8911 59.7819 -89.882 57.8249 -89.8738 55.8678 C -89.8518 51.0747 -89.8173 46.2819 -89.7762 41.4889 C -91.0776 41.5151 -92.3791 41.5413 -93.72 41.5683 C -98.5616 41.659 -103.4032 41.7162 -108.2454 41.7636 C -110.3386 41.7887 -112.4318 41.8228 -114.5247 41.8661 C -117.5384 41.927 -120.551 41.9552 -123.5652 41.9772 C -124.4967 42.003 -125.4282 42.0288 -126.3879 42.0554 C -130.8733 42.0573 -133.8521 41.9121 -137.4144 39.0209 C -139.7762 36.4889 -139.7762 36.4889 -139.7762 35.4889 C -114.5312 34.9939 -114.5312 34.9939 -88.7762 34.4889 C -86.1362 29.2089 -83.4962 23.9289 -80.7762 18.4889 C -78.1095 13.1556 -75.4428 7.8223 -72.7762 2.4889 C -71.4562 2.4889 -70.1362 2.4889 -68.7762 2.4889 C -67.6258 7.8838 -66.4812 13.2799 -65.3387 18.6764 C -65.1628 19.5059 -64.9869 20.3355 -64.8056 21.1901 C -62.5782 31.7078 -60.4148 42.2356 -58.3465 52.7858 C -58.1468 53.8007 -57.9471 54.8156 -57.7414 55.8612 C -56.7629 60.8377 -55.7926 65.8157 -54.835 70.7963 C -54.4759 72.6301 -54.1164 74.4638 -53.7566 76.2975 C -53.6006 77.1252 -53.4446 77.9529 -53.2839 78.8056 C -52.3112 83.713 -50.9073 87.9586 -48.7762 92.4889 C -46.8189 92.4093 -46.8189 92.4093 -44.7762 91.4889 C -43.4938 89.1026 -43.4938 89.1026 -42.6551 86.067 C -42.0982 84.3322 -42.0982 84.3322 -41.5301 82.5624 C -41.3369 81.9402 -41.1437 81.3181 -40.9446 80.6771 C -28.4246 40.6319 -7.7604 4.6012 19.8474 -26.9349 C 21.0685 -28.3332 22.2779 -29.7417 23.4855 -31.1517 C 27.1207 -35.351 30.877 -39.1367 35.1223 -42.7181 C 37.3858 -44.6493 39.5467 -46.6707 41.7238 -48.6986 C 53.8382 -59.561 67.1492 -68.1876 81.194 -76.3319 C 83.5516 -77.7015 85.8909 -79.1 88.2238 -80.5111 C 45.191 -69.1809 6.3368 -42.8243 -20.7762 -7.5111 C -21.9441 -5.9932 -21.9441 -5.9932 -23.1355 -4.4447 C -32.8748 8.5494 -40.6534 22.9281 -47.7762 37.4889 C -49.0962 37.1589 -50.4162 36.8289 -51.7762 36.4889 C -52.8209 31.7604 -53.8622 27.0312 -54.9012 22.3014 C -55.0576 21.5898 -55.214 20.8782 -55.3751 20.1451 C -57.1416 12.0981 -58.8835 4.0472 -60.5418 -4.0228 C -60.748 -5.0263 -60.748 -5.0263 -60.9584 -6.05 C -61.6139 -9.2472 -62.264 -12.4454 -62.9095 -15.6446 C -63.1413 -16.7839 -63.3732 -17.9232 -63.6121 -19.097 C -63.8137 -20.0978 -64.0153 -21.0986 -64.223 -22.1297 C -64.6783 -24.5097 -64.6783 -24.5097 -65.7762 -26.5111 C -66.4362 -26.5111 -67.0962 -26.5111 -67.7762 -26.5111 C -68.9623 -24.2413 -70.148 -21.9714 -71.3333 -19.7013 C -72.3899 -17.6778 -73.4469 -15.6545 -74.5042 -13.6315 C -77.5608 -7.7776 -80.6011 -1.9158 -83.6199 3.9576 C -84.5699 5.8024 -85.5201 7.6471 -86.4704 9.4917 C -87.0902 10.6967 -87.7086 11.9025 -88.3255 13.1089 C -89.1937 14.8063 -90.0669 16.5012 -90.9402 18.1959 C -91.6897 19.6574 -91.6897 19.6574 -92.4544 21.1483 C -93.7762 23.4889 -93.7762 23.4889 -95.7762 25.4889 C -97.7251 25.7294 -97.7251 25.7294 -100.1341 25.716 C -101.0349 25.7158 -101.9357 25.7157 -102.8637 25.7155 C -103.8377 25.7052 -104.8117 25.6948 -105.8152 25.6842 C -106.8112 25.6814 -107.8072 25.6786 -108.8334 25.6756 C -112.0228 25.6644 -115.2119 25.6393 -118.4012 25.6139 C -120.56 25.6039 -122.7189 25.5947 -124.8777 25.5866 C -130.1773 25.5645 -135.4767 25.531 -140.7762 25.4889 C -140.8778 19.0478 -140.9477 12.6069 -140.9959 6.1652 C -141.016 3.975 -141.0433 1.7849 -141.0779 -0.4051 C -141.1266 -3.5578 -141.1492 -6.7097 -141.1668 -9.8627 C -141.1875 -10.8379 -141.2081 -11.8131 -141.2294 -12.8179 C -141.2312 -18.5434 -140.7914 -22.0855 -136.7762 -26.5111 C -132.3894 -30.256 -127.8213 -29.9825 -122.3191 -30.0228 C -121.4162 -30.0408 -120.5132 -30.0587 -119.5829 -30.0772 C -116.7099 -30.1312 -113.837 -30.1652 -110.9637 -30.1986 C -109.0112 -30.2318 -107.0587 -30.2663 -105.1063 -30.3021 C -100.3297 -30.387 -95.5532 -30.4538 -90.7762 -30.5111 C -90.7721 -31.752 -90.768 -32.9929 -90.7637 -34.2714 C -90.7419 -38.8899 -90.6876 -43.5077 -90.6236 -48.1258 C -90.6004 -50.1219 -90.586 -52.118 -90.5806 -54.1141 C -90.5713 -56.9894 -90.5303 -59.8628 -90.4832 -62.7377 C -90.4871 -63.6254 -90.4911 -64.5131 -90.4951 -65.4278 C -90.3964 -69.6532 -90.1517 -72.6121 -87.482 -75.9969 C -83.4906 -79.7056 -80.8946 -80.7589 -75.4603 -80.7858 C -74.3988 -80.7953 -73.3374 -80.8048 -72.2437 -80.8146 C -71.102 -80.8137 -69.9603 -80.8128 -68.784 -80.8119 C -67.6053 -80.8162 -66.4266 -80.8204 -65.2122 -80.8249 C -62.719 -80.8306 -60.2259 -80.8311 -57.7327 -80.8268 C -53.9227 -80.8236 -50.1134 -80.8471 -46.3035 -80.8724 C -43.8803 -80.8747 -41.4572 -80.8754 -39.034 -80.8744 C -37.8963 -80.8836 -36.7586 -80.8928 -35.5865 -80.9023 C -25.2428 -80.8419 -25.2428 -80.8419 -20.7762 -77.5111 C -16.2135 -72.5096 -16.2363 -68.1555 -16.3855 -61.7377 C -16.3912 -60.8139 -16.3969 -59.8902 -16.4027 -58.9384 C -16.425 -56.0038 -16.4752 -53.0704 -16.5262 -50.1361 C -16.5462 -48.14 -16.5645 -46.1439 -16.5809 -44.1478 C -16.6248 -39.2684 -16.6938 -34.39 -16.7762 -29.5111 C -15.5118 -29.6324 -14.2473 -29.7538 -12.9446 -29.8788 C -12.2334 -29.947 -11.5222 -30.0153 -10.7894 -30.0856 C -7.4338 -30.7948 -5.8664 -32.8717 -3.6512 -35.3861 C 1.8896 -41.3707 7.942 -46.3055 14.4606 -51.1879 C 16.1365 -52.4456 17.7953 -53.7234 19.4543 -55.0033 C 33.831 -65.8801 50.215 -74.5777 67.2238 -80.5111 C 68.0267 -80.7982 68.8297 -81.0854 69.6569 -81.3812 C 88.0229 -87.9188 104.7399 -91.0016 124.2238 -91.5111 C 124.9045 -92.9652 124.9045 -92.9652 125.5988 -94.4486 C 128.1881 -99.3284 130.9164 -99.1408 136.2238 -98.5111 Z" stroke-linecap="round" />
</g>
		<g transform="matrix(0.4529 0 0 0.4529 -135.4582 -8.6812)"  >
<path style="stroke: none; stroke-width: 0; stroke-dasharray: none; stroke-linecap: round; stroke-dashoffset: 0; stroke-linejoin: round; stroke-miterlimit: 4; fill: rgb(25,175,228); fill-rule: nonzero; opacity: 1;" vector-effect="non-scaling-stroke"  transform=" translate(0, 0)" d="M 0.028 -49.2366 C 1.6299 -49.2507 1.6299 -49.2507 3.2641 -49.2651 C 4.9861 -49.2482 4.9861 -49.2482 6.7429 -49.231 C 7.9263 -49.2325 9.1098 -49.2339 10.3291 -49.2354 C 12.8306 -49.2338 15.3322 -49.2222 17.8337 -49.2015 C 21.6658 -49.1725 25.4966 -49.1809 29.3288 -49.1939 C 31.7585 -49.1877 34.1882 -49.1793 36.6179 -49.1685 C 38.3399 -49.1729 38.3399 -49.1729 40.0966 -49.1774 C 41.1645 -49.1647 42.2325 -49.1521 43.3327 -49.139 C 44.2711 -49.1336 45.2094 -49.1282 46.1762 -49.1226 C 49.1993 -48.6546 50.5646 -47.9401 52.6804 -45.7349 C 53.1614 -43.5899 53.1614 -43.5899 53.1345 -41.0799 C 53.1342 -40.1392 53.1339 -39.1984 53.1336 -38.2292 C 53.1129 -37.2166 53.0923 -36.204 53.071 -35.1607 C 53.0653 -34.1217 53.0597 -33.0828 53.0538 -32.0123 C 53.0314 -28.6902 52.9812 -25.3692 52.9304 -22.0474 C 52.9103 -19.7968 52.8921 -17.5461 52.8757 -15.2955 C 52.8316 -9.7749 52.7646 -4.255 52.6804 1.2651 C 54.9904 1.5951 57.3004 1.9251 59.6804 2.2651 C 58.8679 3.3484 58.0554 4.4317 57.2429 5.5151 C 56.6899 6.2563 56.1369 6.9975 55.5671 7.7612 C 54.2929 9.4522 53.0034 11.1317 51.6999 12.8002 C 45.2311 21.1779 39.6415 30.0252 34.073 39.017 C 31.9527 42.4397 29.8161 45.8521 27.6804 49.2651 C 26.0788 46.3464 25.2288 43.7159 24.5988 40.4523 C 24.4117 39.5013 24.2245 38.5503 24.0317 37.5705 C 23.8359 36.5506 23.64 35.5307 23.4382 34.4799 C 23.0078 32.319 22.5768 30.1582 22.1452 27.9975 C 21.4713 24.5928 20.8024 21.1873 20.1447 17.7795 C 19.507 14.4891 18.8492 11.2032 18.1882 7.9174 C 17.9964 6.8955 17.8045 5.8736 17.6069 4.8207 C 17.4135 3.8729 17.22 2.925 17.0207 1.9484 C 16.858 1.1144 16.6952 0.2804 16.5276 -0.5788 C 15.4476 -3.3274 14.1993 -4.2492 11.6804 -5.7349 C 8.7232 -6.4017 8.7232 -6.4017 5.6804 -5.7349 C 1.8931 -2.4553 -0.358 0.7546 -2.5188 5.2455 C -3.0839 6.4021 -3.6489 7.5586 -4.231 8.7502 C -4.5213 9.3554 -4.8115 9.9607 -5.1106 10.5843 C -6.6243 13.7387 -8.1719 16.8764 -9.7181 20.0151 C -10.1763 20.9476 -10.1763 20.9476 -10.6437 21.899 C -13.3261 27.3343 -16.1701 32.6654 -19.1321 37.9526 C -19.5462 38.6934 -19.9602 39.4342 -20.3868 40.1975 C -23.1616 45.1071 -23.1616 45.1071 -24.3196 46.2651 C -26.4792 46.3653 -28.6421 46.3959 -30.804 46.3979 C -31.4566 46.3989 -32.1092 46.3998 -32.7816 46.4008 C -34.167 46.4015 -35.5524 46.3996 -36.9378 46.3955 C -39.0469 46.3901 -41.1558 46.3954 -43.2649 46.4018 C -44.6113 46.4011 -45.9576 46.3999 -47.304 46.3979 C -48.5283 46.3968 -49.7526 46.3956 -51.014 46.3945 C -53.9153 46.2809 -56.5028 45.9369 -59.3196 45.2651 C -59.3938 39.7842 -59.4482 34.3035 -59.4844 28.8222 C -59.4995 26.9579 -59.52 25.0936 -59.5459 23.2294 C -59.5823 20.5485 -59.5993 17.8681 -59.6126 15.187 C -59.6281 14.3545 -59.6435 13.5221 -59.6595 12.6644 C -59.6597 11.8839 -59.6599 11.1034 -59.6602 10.2993 C -59.6668 9.6153 -59.6735 8.9314 -59.6804 8.2267 C -59.1856 5.5364 -58.237 4.2021 -56.3196 2.2651 C -54.2125 1.7461 -54.2125 1.7461 -51.7564 1.7192 C -50.3753 1.6896 -50.3753 1.6896 -48.9663 1.6594 C -47.4802 1.6576 -47.4802 1.6576 -45.9642 1.6557 C -44.9474 1.6392 -43.9306 1.6227 -42.883 1.6056 C -39.6327 1.557 -36.3828 1.5357 -33.1321 1.5151 C -30.9296 1.4869 -28.7272 1.457 -26.5247 1.4253 C -21.1231 1.3512 -15.7216 1.2997 -10.3196 1.2651 C -10.316 0.6977 -10.3123 0.1303 -10.3086 -0.4543 C -10.2668 -6.3595 -10.1974 -12.2638 -10.1121 -18.1685 C -10.0839 -20.3722 -10.0627 -22.576 -10.0486 -24.7798 C -10.0272 -27.9477 -9.9806 -31.1143 -9.929 -34.2818 C -9.9278 -35.2673 -9.9265 -36.2529 -9.9253 -37.2683 C -9.9056 -38.1889 -9.8858 -39.1096 -9.8655 -40.0581 C -9.8522 -41.2706 -9.8522 -41.2706 -9.8386 -42.5075 C -8.5928 -47.8542 -5.0572 -49.2357 0.028 -49.2366 Z" stroke-linecap="round" />
</g>
		<g transform="matrix(0.4529 0 0 0.4529 -112.2766 5.755)"  >
<path style="stroke: none; stroke-width: 0; stroke-dasharray: none; stroke-linecap: round; stroke-dashoffset: 0; stroke-linejoin: round; stroke-miterlimit: 4; fill: rgb(35,39,101); fill-rule: nonzero; opacity: 1;" vector-effect="non-scaling-stroke"  transform=" translate(0, 0)" d="M 115.5 -86.6071 C 113.9202 -85.8066 113.9202 -85.8066 112.3086 -84.9899 C 93.064 -75.1058 75.9723 -62.9392 60.2187 -48.1149 C 58.293 -46.3386 56.3741 -44.6576 54.3516 -43.0017 C 52.1188 -41.1267 50.2441 -39.381 48.375 -37.1696 C 46.2356 -34.6464 44.0866 -32.1457 41.8789 -29.6814 C 24.3274 -9.9712 10.7944 12.6234 -0.5 36.3929 C -0.8474 37.1089 -1.1948 37.825 -1.5527 38.5628 C -5.578 46.8951 -9.1947 55.2575 -12.1172 64.0452 C -12.3372 64.7037 -12.5572 65.3623 -12.7839 66.0408 C -13.8752 69.325 -14.9375 72.6154 -15.9624 75.9209 C -16.3512 77.1208 -16.74 78.3207 -17.1406 79.5569 C -17.6438 81.1727 -17.6438 81.1727 -18.1572 82.8211 C -19.5 85.3929 -19.5 85.3929 -22.1475 86.7576 C -22.9238 86.9672 -23.7001 87.1769 -24.5 87.3929 C -26.9752 84.4522 -28.0156 82.1754 -28.7539 78.4163 C -28.9638 77.3769 -29.1737 76.3375 -29.3899 75.2666 C -29.6119 74.112 -29.8338 72.9574 -30.0625 71.7679 C -30.44 69.8727 -30.8176 67.9776 -31.1955 66.0825 C -31.6306 63.8916 -32.0606 61.6996 -32.4902 59.5076 C -33.6629 53.5441 -34.8719 47.5879 -36.0781 41.6311 C -36.7622 38.2441 -37.4457 34.8569 -38.1289 31.4696 C -38.5831 29.2178 -39.0378 26.9661 -39.4929 24.7146 C -40.1403 21.5077 -40.7836 18.3 -41.4258 15.0921 C -41.7176 13.6513 -41.7176 13.6513 -42.0153 12.1815 C -43.0626 6.9283 -43.9081 1.7171 -44.5 -3.6071 C -45.82 -3.6071 -47.14 -3.6071 -48.5 -3.6071 C -48.7785 -2.7301 -49.057 -1.8531 -49.344 -0.9494 C -51.1361 4.2319 -53.5651 9.0814 -55.9375 14.0179 C -56.428 15.0543 -56.9185 16.0907 -57.4238 17.1585 C -58.1402 18.6551 -58.1402 18.6551 -58.8711 20.1819 C -59.3035 21.0864 -59.7359 21.9908 -60.1814 22.9226 C -61.489 25.3723 -62.6141 27.3517 -64.5 29.3929 C -66.7969 29.8739 -66.7969 29.8739 -69.5222 29.847 C -70.543 29.8467 -71.5639 29.8464 -72.6156 29.846 C -73.7157 29.8254 -74.8158 29.8047 -75.9492 29.7835 C -77.077 29.7778 -78.2047 29.7722 -79.3666 29.7663 C -82.974 29.7439 -86.5804 29.6937 -90.1875 29.6429 C -92.6308 29.6228 -95.0742 29.6045 -97.5176 29.5882 C -103.5121 29.544 -109.5059 29.475 -115.5 29.3929 C -115.5 26.0929 -115.5 22.7929 -115.5 19.3929 C -100.98 19.0629 -86.46 18.7329 -71.5 18.3929 C -62.5985 1.484 -62.5985 1.484 -53.8047 -15.4802 C -50.5953 -21.669 -47.1557 -27.6711 -43.5 -33.6071 C -42.015 -33.1121 -42.015 -33.1121 -40.5 -32.6071 C -39.4968 -29.8115 -39.4968 -29.8115 -38.6055 -25.9704 C -38.4401 -25.2669 -38.2747 -24.5633 -38.1043 -23.8384 C -35.8018 -13.8693 -33.8227 -3.8258 -31.8125 6.2054 C -31.2091 9.2058 -30.6047 12.206 -29.9981 15.2058 C -29.6243 17.0551 -29.2525 18.9047 -28.8829 20.7549 C -28.7157 21.5839 -28.5485 22.413 -28.3762 23.2671 C -28.2306 23.9938 -28.085 24.7206 -27.935 25.4693 C -27.4877 27.5951 -27.4877 27.5951 -26.5 30.3928 C -25.015 30.8878 -25.015 30.8878 -23.5 31.3928 C -23.2809 30.6155 -23.0617 29.8382 -22.8359 29.0374 C -11.0462 -3.126 15.5424 -33.2378 42.8232 -53.3572 C 44.4179 -54.546 45.9796 -55.7787 47.5391 -57.0134 C 63.3111 -69.0675 82.5809 -78.6631 101.5 -84.6072 C 102.5893 -84.9526 103.6785 -85.2981 104.8008 -85.654 C 111.9854 -87.7787 111.9854 -87.7787 115.5 -86.6071 Z" stroke-linecap="round" />
</g>
		<g transform="matrix(0.4529 0 0 0.4529 -99.1414 18.1644)"  >
<path style="stroke: none; stroke-width: 0; stroke-dasharray: none; stroke-linecap: round; stroke-dashoffset: 0; stroke-linejoin: round; stroke-miterlimit: 4; fill: rgb(31,34,95); fill-rule: nonzero; opacity: 1;" vector-effect="non-scaling-stroke"  transform=" translate(0, 0)" d="M 35.125 -64.8171 C 35.8185 -64.7726 36.512 -64.7281 37.2266 -64.6823 C 38.9933 -64.5426 40.7496 -64.2824 42.5 -64.0046 C 42.995 -63.0146 42.995 -63.0146 43.5 -62.0046 C 42.8735 -61.2685 42.247 -60.5325 41.6016 -59.7741 C 40.7843 -58.7983 39.967 -57.8225 39.125 -56.8171 C 38.3129 -55.8542 37.5008 -54.8912 36.6641 -53.8991 C 32.2562 -48.0035 32.219 -43.0465 32.2266 -35.9186 C 32.2063 -33.916 32.1854 -31.9134 32.1641 -29.9108 C 32.1415 -26.7685 32.125 -23.6265 32.1191 -20.4841 C 32.1096 -17.441 32.0758 -14.399 32.0391 -11.3561 C 32.0441 -10.4236 32.0491 -9.4911 32.0543 -8.5304 C 31.964 -2.5082 31.0149 1.0623 27.5 5.9954 C 22.0048 10.308 14.8041 9.5563 8.125 9.6829 C 6.912 9.7171 5.699 9.7512 4.4492 9.7864 C 1.4662 9.8687 -1.5165 9.9379 -4.5 9.9954 C -8.5636 18.3724 -12.1928 26.7994 -15.082 35.6595 C -15.2989 36.3241 -15.5157 36.9888 -15.7391 37.6736 C -16.8207 41.012 -17.8771 44.3568 -18.9097 47.7108 C -22.6335 59.4479 -22.6335 59.4479 -27.5 63.9954 C -30.3661 65.4285 -32.313 65.3019 -35.5 64.9954 C -39.1578 62.9555 -41.1695 61.4912 -43.5 57.9954 C -42.9836 55.3736 -42.9836 55.3736 -41.8945 52.2025 C -41.4936 51.0267 -41.0927 49.8509 -40.6797 48.6395 C -40.2253 47.3618 -39.7696 46.0846 -39.3125 44.8079 C -39.0851 44.1612 -38.8578 43.5144 -38.6235 42.848 C -34.0459 29.8514 -28.5992 17.3528 -22.5 4.9954 C -22.0931 4.1587 -21.6863 3.3219 -21.2671 2.4598 C -9.5476 -21.483 6.1142 -42.7959 24.5 -62.0046 C 24.9512 -62.6233 25.4023 -63.2421 25.8672 -63.8796 C 28.6844 -65.8206 31.8724 -65.1197 35.125 -64.8171 Z" stroke-linecap="round" />
</g>
		<g transform="matrix(0.4529 0 0 0.4529 33.8104 8.9926)"  >
<path style="stroke: none; stroke-width: 0; stroke-dasharray: none; stroke-linecap: round; stroke-dashoffset: 0; stroke-linejoin: round; stroke-miterlimit: 4; fill: rgb(247,249,249); fill-rule: nonzero; opacity: 1;" vector-effect="non-scaling-stroke"  transform=" translate(0, 0)" d="M 15.969 -37.7552 C 20.259 -37.7552 24.549 -37.7552 28.969 -37.7552 C 28.969 -13.3352 28.969 11.0848 28.969 36.2448 C 24.679 36.2448 20.389 36.2448 15.969 36.2448 C 15.639 34.5948 15.309 32.9448 14.969 31.2448 C 14.4263 31.5942 13.8837 31.9435 13.3245 32.3034 C 12.6091 32.7585 11.8937 33.2135 11.1565 33.6823 C 10.4488 34.1348 9.7412 34.5873 9.012 35.0534 C 3.2224 38.4298 -3.5619 37.9575 -10.031 37.2448 C -18.3111 34.2569 -23.3474 28.3564 -27.3435 20.7448 C -29.6026 12.5297 -29.8862 3.5425 -25.7341 -4.1614 C -21.5114 -9.9948 -16.2069 -15.0472 -9.0309 -16.7552 C -0.6743 -17.5809 5.8629 -17.4015 12.9691 -12.7552 C 13.6291 -12.0952 14.2891 -11.4352 14.9691 -10.7552 C 15.2991 -19.6652 15.6291 -28.5752 15.9691 -37.7552 Z" stroke-linecap="round" />
</g>
		<g transform="matrix(0.4529 0 0 0.4529 -30.9471 9.5253)"  >
<path style="stroke: none; stroke-width: 0; stroke-dasharray: none; stroke-linecap: round; stroke-dashoffset: 0; stroke-linejoin: round; stroke-miterlimit: 4; fill: rgb(244,247,247); fill-rule: nonzero; opacity: 1;" vector-effect="non-scaling-stroke"  transform=" translate(0, 0)" d="M -30.3366 -35.0289 C -28.6834 -35.0115 -28.6834 -35.0115 -26.9968 -34.9938 C -25.892 -34.9848 -24.7873 -34.9757 -23.6491 -34.9664 C -22.7944 -34.9548 -21.9398 -34.9432 -21.0593 -34.9313 C -20.6094 -34.0315 -20.1595 -33.1318 -19.696 -32.2047 C -19.2389 -31.2907 -19.2389 -31.2907 -18.7726 -30.3583 C -18.078 -28.9689 -17.3837 -27.5794 -16.6896 -26.1898 C -14.5157 -21.8387 -12.3355 -17.4909 -10.1491 -13.1461 C -9.6577 -12.1679 -9.1663 -11.1897 -8.6601 -10.1818 C -7.6889 -8.2483 -6.7161 -6.3157 -5.7416 -4.3839 C -5.2921 -3.4882 -4.8427 -2.5924 -4.3796 -1.6696 C -3.9801 -0.8759 -3.5807 -0.0822 -3.1691 0.7355 C -2.0235 3.1439 -1.0237 5.5828 -0.0593 8.0687 C 3.7318 0.5869 7.4689 -6.9161 11.0736 -14.4899 C 11.8774 -16.178 11.8774 -16.178 12.6976 -17.9003 C 13.7696 -20.1568 14.838 -22.4151 15.9027 -24.6752 C 16.3973 -25.7162 16.892 -26.7572 17.4017 -27.8297 C 17.843 -28.7648 18.2844 -29.6998 18.7391 -30.6632 C 19.9407 -32.9313 19.9407 -32.9313 21.9407 -34.9313 C 24.7259 -35.1617 24.7259 -35.1617 28.0032 -35.1188 C 29.6294 -35.1091 29.6294 -35.1091 31.2884 -35.0992 C 33.9407 -34.9313 33.9407 -34.9313 34.9407 -33.9313 C 35.2407 -32.1844 35.4809 -30.4273 35.6968 -28.6681 C 35.8369 -27.5425 35.977 -26.4168 36.1213 -25.2571 C 36.2692 -24.0281 36.4172 -22.7991 36.5696 -21.5328 C 36.7236 -20.273 36.8775 -19.0131 37.0362 -17.7151 C 37.362 -15.0369 37.6859 -12.3586 38.0069 -9.6798 C 38.4153 -6.2755 38.8334 -2.8725 39.2545 0.5303 C 39.6573 3.8002 40.0504 7.0712 40.4446 10.3422 C 40.6696 12.1553 40.6696 12.1553 40.8991 14.0051 C 41.7367 21.0837 42.0843 27.9406 41.9407 35.0687 C 37.6507 35.0687 33.3607 35.0687 28.9407 35.0687 C 28.7945 33.8477 28.6483 32.6266 28.4976 31.3685 C 27.9541 26.8358 27.4073 22.3035 26.8594 17.7713 C 26.6228 15.8102 26.3872 13.8489 26.1524 11.8876 C 25.8147 9.0674 25.4737 6.2477 25.1321 3.4281 C 25.0279 2.5519 24.9237 1.6757 24.8164 0.773 C 24.7163 -0.0476 24.6163 -0.8681 24.5132 -1.7135 C 24.4266 -2.433 24.34 -3.1525 24.2508 -3.8938 C 23.941 -5.9297 23.4402 -7.9334 22.9407 -9.9313 C 17.0007 2.2787 11.0607 14.4887 4.9407 27.0687 C 1.9707 27.0687 -0.9993 27.0687 -4.0593 27.0687 C -10.7662 14.565 -17.0913 1.9416 -23.0593 -10.9313 C -23.1752 -9.8523 -23.2911 -8.7734 -23.4106 -7.6618 C -23.8441 -3.6286 -24.2786 0.4044 -24.7133 4.4374 C -24.9007 6.1772 -25.0879 7.9171 -25.2748 9.6571 C -25.5448 12.1694 -25.8156 14.6815 -26.0866 17.1937 C -26.1689 17.9617 -26.2513 18.7298 -26.3361 19.5211 C -26.5721 21.7042 -26.8146 23.8865 -27.0593 26.0687 C -27.1411 26.8264 -27.2228 27.584 -27.3071 28.3646 C -27.9445 33.9539 -27.9445 33.9539 -29.0593 35.0687 C -31.0789 35.1411 -33.1009 35.1525 -35.1218 35.1312 C -36.2265 35.1222 -37.3312 35.1132 -38.4694 35.1039 C -39.3241 35.0923 -40.1787 35.0807 -41.0593 35.0687 C -42.3747 32.4379 -41.9743 30.904 -41.6538 27.9833 C -41.54 26.921 -41.4263 25.8587 -41.3091 24.7643 C -41.1789 23.6092 -41.0488 22.4541 -40.9147 21.264 C -40.7849 20.0745 -40.655 18.885 -40.5213 17.6595 C -40.2441 15.1322 -39.9639 12.6052 -39.6811 10.0785 C -39.2525 6.2452 -38.8338 2.411 -38.4167 -1.4235 C -38.1458 -3.8819 -37.8743 -6.3402 -37.6023 -8.7985 C -37.4782 -9.9333 -37.3541 -11.0682 -37.2263 -12.2374 C -34.6767 -34.8733 -34.6767 -34.8733 -30.3366 -35.0289 Z" stroke-linecap="round" />
</g>
		<g transform="matrix(0.4529 0 0 0.4529 68.4462 9.5564)"  >
<path style="stroke: none; stroke-width: 0; stroke-dasharray: none; stroke-linecap: round; stroke-dashoffset: 0; stroke-linejoin: round; stroke-miterlimit: 4; fill: rgb(240,244,245); fill-rule: nonzero; opacity: 1;" vector-effect="non-scaling-stroke"  transform=" translate(0, 0)" d="M -31.5 -35 C -18.5 -35 -18.5 -35 -14.625 -31.625 C -13.5413 -30.1126 -12.5009 -28.5684 -11.5 -27 C -10.3331 -25.3408 -9.1638 -23.6833 -7.9922 -22.0273 C -7.4157 -21.1854 -6.8391 -20.3435 -6.2451 -19.4761 C -3.5664 -15.6754 -0.6053 -12.1283 2.375 -8.5625 C 7.3724 -2.5514 11.8829 3.6514 16.5 10 C 16.83 -4.85 17.16 -19.7 17.5 -35 C 22.12 -35 26.74 -35 31.5 -35 C 31.5 -11.9 31.5 11.2 31.5 35 C 19.5 35 19.5 35 15.3125 31.25 C 14.0058 29.5266 12.7367 27.7743 11.5 26 C 10.0644 24.1027 8.6268 22.207 7.1875 20.3125 C 6.4398 19.3006 5.6922 18.2887 4.9219 17.2461 C 2.3229 13.7396 -0.362 10.3036 -3.0625 6.875 C -3.4851 6.3379 -3.9076 5.8007 -4.343 5.2473 C -8.369 0.1436 -12.439 -4.9237 -16.5 -10 C -16.83 4.85 -17.16 19.7 -17.5 35 C -22.12 35 -26.74 35 -31.5 35 C -31.5 11.9 -31.5 -11.2 -31.5 -35 Z" stroke-linecap="round" />
</g>
		<g transform="matrix(0.4529 0 0 0.4529 101.1227 13.6086)"  >
<path style="stroke: none; stroke-width: 0; stroke-dasharray: none; stroke-linecap: round; stroke-dashoffset: 0; stroke-linejoin: round; stroke-miterlimit: 4; fill: rgb(245,248,248); fill-rule: nonzero; opacity: 1;" vector-effect="non-scaling-stroke"  transform=" translate(0, 0)" d="M 12.9194 -25.3839 C 19.4227 -22.2689 24.7309 -17.0578 27.6928 -10.4386 C 29.6968 -2.9178 29.5743 5.4209 26.3569 12.5536 C 22.6203 18.8796 17.0105 24.3717 9.8803 26.6122 C 0.9266 28.1784 -8.5255 28.4483 -16.5259 23.6669 C -22.5092 19.1077 -27.215 13.573 -28.6431 6.0536 C -29.6406 -2.6774 -28.8913 -9.7333 -23.6431 -16.9464 C -14.1763 -27.4232 -0.3552 -30.1074 12.9194 -25.3839 Z" stroke-linecap="round" />
</g>
		<g transform="matrix(0.4529 0 0 0.4529 4.7577 13.4789)"  >
<path style="stroke: none; stroke-width: 0; stroke-dasharray: none; stroke-linecap: round; stroke-dashoffset: 0; stroke-linejoin: round; stroke-miterlimit: 4; fill: rgb(243,246,246); fill-rule: nonzero; opacity: 1;" vector-effect="non-scaling-stroke"  transform=" translate(0, 0)" d="M 15.4397 -24.0545 C 20.8225 -19.5647 25.2069 -14.4944 27.1115 -7.66 C 27.1115 -3.37 27.1115 0.92 27.1115 5.34 C 13.9115 5.34 0.7115 5.34 -12.8885 5.34 C -9.9896 11.1377 -9.1669 12.3709 -3.8885 15.34 C 1.5751 17.1612 5.6722 16.7269 10.799 14.2775 C 11.5248 13.8947 12.2505 13.5118 12.9983 13.1173 C 15.5292 12.1864 16.6239 12.3844 19.1115 13.34 C 21.3615 14.9025 21.3615 14.9025 23.1115 16.34 C 22.7995 19.2526 22.1509 20.3007 20.049 22.4025 C 11.7256 27.8925 3.9212 28.1502 -5.8885 27.34 C -8.7364 26.6761 -10.3195 25.8705 -12.8885 24.34 C -13.8991 23.7831 -14.9097 23.2263 -15.951 22.6525 C -21.7493 18.0879 -25.6399 12.7067 -26.8885 5.34 C -27.8415 -4.4433 -25.7955 -11.2906 -19.701 -18.9725 C -11.3921 -27.7177 4.791 -30.7217 15.4397 -24.0545 Z" stroke-linecap="round" />
</g>
		<g transform="matrix(0.4529 0 0 0.4529 153.8063 13.5188)"  >
<path style="stroke: none; stroke-width: 0; stroke-dasharray: none; stroke-linecap: round; stroke-dashoffset: 0; stroke-linejoin: round; stroke-miterlimit: 4; fill: rgb(243,246,246); fill-rule: nonzero; opacity: 1;" vector-effect="non-scaling-stroke"  transform=" translate(0, 0)" d="M 16.3818 -24.0215 C 20.253 -21.052 23.3295 -17.3429 25.0419 -12.7481 C 25.3151 -9.7724 25.2743 -6.8121 25.2373 -3.8262 C 25.2344 -2.9662 25.2316 -2.1062 25.2287 -1.2202 C 25.2175 1.5207 25.1924 4.2612 25.1669 7.0019 C 25.1569 8.8626 25.1478 10.7233 25.1396 12.584 C 25.1176 17.1401 25.0831 21.696 25.0419 26.2519 C 21.0819 26.2519 17.1219 26.2519 13.0419 26.2519 C 12.7119 24.6019 12.3819 22.9519 12.0419 21.2519 C 11.5714 21.6013 11.1009 21.9506 10.6162 22.3105 C 9.9935 22.7656 9.3709 23.2206 8.7294 23.6894 C 8.1146 24.1419 7.4997 24.5944 6.8662 25.0605 C 1.4094 28.6244 -5.7276 27.7487 -11.9581 27.2519 C -17.3737 25.7306 -20.9006 23.0216 -23.9581 18.2519 C -25.7479 12.8824 -25.8424 8.0546 -23.3331 2.9394 C -18.1748 -2.8976 -12.2179 -5.4054 -4.5294 -5.9063 C -2.0025 -5.9436 0.5154 -5.9235 3.0419 -5.8731 C 3.9121 -5.864 4.7822 -5.855 5.6787 -5.8457 C 7.7999 -5.8224 9.9209 -5.7866 12.0419 -5.7481 C 10.118 -11.0622 10.118 -11.0622 6.0419 -14.7481 C -1.7828 -15.3792 -9.4628 -15.1955 -16.9581 -12.7481 C -18.5616 -16.2558 -19.1784 -18.8916 -18.9581 -22.7481 C -9.3441 -28.5527 6.3251 -29.6596 16.3818 -24.0215 Z" stroke-linecap="round" />
</g>
		<g transform="matrix(0.4529 0 0 0.4529 128.2342 13.6492)"  >
<path style="stroke: none; stroke-width: 0; stroke-dasharray: none; stroke-linecap: round; stroke-dashoffset: 0; stroke-linejoin: round; stroke-miterlimit: 4; fill: rgb(246,248,249); fill-rule: nonzero; opacity: 1;" vector-effect="non-scaling-stroke"  transform=" translate(0, 0)" d="M -27.5 -26.0361 C -22.88 -26.0361 -18.26 -26.0361 -13.5 -26.0361 C -11.6444 -21.2322 -9.793 -16.4267 -7.9458 -11.6196 C -7.3165 -9.9837 -6.6859 -8.3483 -6.0542 -6.7133 C -5.1476 -4.3664 -4.2452 -2.0178 -3.3437 0.3311 C -3.0594 1.0645 -2.775 1.7979 -2.4821 2.5535 C -0.5 7.7362 -0.5 7.7362 -0.5 9.9639 C 0.16 9.9639 0.82 9.9639 1.5 9.9639 C 1.6141 9.1109 1.7282 8.2579 1.8457 7.379 C 2.5325 3.7942 3.62 0.7126 4.9688 -2.6767 C 5.3293 -3.5891 5.3293 -3.5891 5.6971 -4.5199 C 6.4592 -6.4442 7.2296 -8.3651 8 -10.2861 C 8.5175 -11.5905 9.0344 -12.8952 9.5508 -14.2001 C 13.2793 -23.5947 13.2793 -23.5947 14.5 -26.0361 C 18.79 -26.0361 23.08 -26.0361 27.5 -26.0361 C 26.8254 -22.6631 26.2768 -20.1643 25.0391 -17.0868 C 24.5867 -15.9563 24.5867 -15.9563 24.1252 -14.8029 C 23.7952 -13.993 23.4651 -13.183 23.125 -12.3485 C 22.7814 -11.498 22.4378 -10.6475 22.0837 -9.7712 C 18.9697 -2.1055 15.7741 5.5262 12.5625 13.1515 C 12.078 14.3041 11.5935 15.4568 11.0942 16.6444 C 10.6416 17.7128 10.189 18.7812 9.7227 19.8819 C 9.318 20.8387 8.9133 21.7954 8.4963 22.7811 C 7.5 24.964 7.5 24.964 6.5 25.964 C 4.3136 26.0365 2.125 26.0477 -0.0625 26.0265 C -1.8588 26.0129 -1.8588 26.0129 -3.6914 25.9991 C -4.6182 25.9875 -5.5451 25.9759 -6.5 25.964 C -11.806 14.4221 -16.7068 2.7258 -21.5 -9.036 C -21.9451 -10.1234 -21.9451 -10.1234 -22.3993 -11.2328 C -23.2493 -13.3115 -24.0942 -15.3921 -24.9375 -17.4735 C -25.4312 -18.6891 -25.9249 -19.9047 -26.4336 -21.1571 C -27.5 -24.036 -27.5 -24.036 -27.5 -26.036 Z" stroke-linecap="round" />
</g>
		<g transform="matrix(0.4529 0 0 0.4529 -134.0306 25.9944)"  >
<path style="stroke: none; stroke-width: 0; stroke-dasharray: none; stroke-linecap: round; stroke-dashoffset: 0; stroke-linejoin: round; stroke-miterlimit: 4; fill: rgb(38,44,102); fill-rule: nonzero; opacity: 1;" vector-effect="non-scaling-stroke"  transform=" translate(0, 0)" d="M -0.4715 -35.2918 C 1.6439 -32.1188 2.1291 -30.1348 2.8571 -26.4309 C 3.0972 -25.226 3.3373 -24.0211 3.5847 -22.7797 C 3.8397 -21.4635 4.0944 -20.1472 4.3488 -18.8308 C 4.6146 -17.4794 4.8808 -16.128 5.1474 -14.7767 C 5.7047 -11.9447 6.2572 -9.1117 6.8064 -6.2781 C 7.5091 -2.6529 8.222 0.9702 8.9383 4.5928 C 9.4893 7.3837 10.0355 10.1755 10.5802 12.9676 C 10.8413 14.3034 11.1036 15.639 11.3673 16.9743 C 11.7358 18.8448 12.0974 20.7167 12.4587 22.5886 C 12.6659 23.6521 12.873 24.7156 13.0864 25.8114 C 13.4969 28.5007 13.6143 30.994 13.5285 33.7083 C 9.5345 35.0396 5.8376 35.0101 1.6535 35.0833 C 0.8505 35.1206 0.0474 35.158 -0.78 35.1965 C -1.5625 35.2081 -2.345 35.2197 -3.1511 35.2317 C -4.2144 35.2614 -4.2144 35.2614 -5.2991 35.2918 C -8.8584 34.3357 -10.2685 32.6189 -12.4714 29.7083 C -13.2602 26.7572 -13.3359 23.8855 -13.3816 20.8411 C -13.4073 19.9769 -13.4331 19.1127 -13.4596 18.2224 C -13.5219 15.4251 -13.5342 12.6312 -13.534 9.8333 C -13.5408 8.8884 -13.5477 7.9435 -13.5547 6.97 C -13.5815 -9.5722 -10.7181 -21.8521 -0.4715 -35.2917 Z" stroke-linecap="round" />
</g>
		<g transform="matrix(0.4529 0 0 0.4529 -40.9238 -38.0613)"  >
<path style="stroke: none; stroke-width: 0; stroke-dasharray: none; stroke-linecap: round; stroke-dashoffset: 0; stroke-linejoin: round; stroke-miterlimit: 4; fill: rgb(33,38,87); fill-rule: nonzero; opacity: 1;" vector-effect="non-scaling-stroke"  transform=" translate(0, 0)" d="M 7.3226 -19.9241 C 13.335 -16.337 17.2229 -11.7489 19.4867 -5.1077 C 20.7645 0.845 19.7836 6.2848 16.7172 11.5056 C 13.4157 16.2111 9.5846 19.5986 3.9672 21.1306 C -2.4715 21.9462 -7.7931 21.1044 -13.0328 17.1306 C -16.1546 13.7578 -18.5749 10.5045 -20.0328 6.1306 C -13.0949 3.0834 -13.0949 3.0834 -9.2203 3.2556 C -7.0328 4.1306 -7.0328 4.1306 -5.6578 5.6931 C -3.953 7.4808 -3.953 7.4808 -0.5328 7.5056 C 2.8264 7.3936 2.8264 7.3936 4.8422 6.0056 C 6.4776 3.2799 6.9035 1.3147 6.9672 -1.8694 C 5.626 -4.8792 5.626 -4.8792 2.9672 -6.8694 C -0.5479 -7.3627 -2.8519 -7.6839 -5.8453 -5.6194 C -7.2937 -3.5679 -7.2937 -3.5679 -9.0328 0.1306 C -12.6628 0.1306 -16.2928 0.1306 -20.0328 0.1306 C -19.5212 -7.1598 -18.0899 -12.0416 -12.5328 -17.1819 C -6.398 -21.323 0.1798 -22.7907 7.3226 -19.9241 Z" stroke-linecap="round" />
</g>
		<g transform="matrix(0.4529 0 0 0.4529 33.9404 13.5251)"  >
<path style="stroke: none; stroke-width: 0; stroke-dasharray: none; stroke-linecap: round; stroke-dashoffset: 0; stroke-linejoin: round; stroke-miterlimit: 4; fill: rgb(8,9,10); fill-rule: nonzero; opacity: 1;" vector-effect="non-scaling-stroke"  transform=" translate(0, 0)" d="M 6.9281 -14.8792 C 10.6672 -12.8073 12.4736 -11.1137 14.682 -7.387 C 16.5554 -0.5962 15.9779 3.9993 12.682 10.238 C 9.8213 13.8878 7.217 15.2967 2.682 16.238 C -2.5377 16.238 -7.2475 15.727 -11.318 12.238 C -14.9538 7.4229 -15.9809 3.6971 -15.6969 -2.3324 C -14.9903 -6.8631 -13.3454 -9.992 -9.8102 -13.0784 C -4.6017 -16.5548 1.0904 -17.1737 6.9281 -14.8792 Z" stroke-linecap="round" />
</g>
		<g transform="matrix(0.4529 0 0 0.4529 101.0147 13.5914)"  >
<path style="stroke: none; stroke-width: 0; stroke-dasharray: none; stroke-linecap: round; stroke-dashoffset: 0; stroke-linejoin: round; stroke-miterlimit: 4; fill: rgb(9,9,13); fill-rule: nonzero; opacity: 1;" vector-effect="non-scaling-stroke"  transform=" translate(0, 0)" d="M 6.7906 -15.0373 C 10.5268 -12.9349 12.3775 -11.2758 14.5953 -7.5334 C 16.4686 -0.7425 15.8912 3.8529 12.5953 10.0916 C 10.2479 12.8933 8.0802 14.9299 4.5953 16.0916 C -1.0225 16.5446 -4.5861 16.304 -9.4047 13.0916 C -13.1537 9.3831 -15.2426 6.1998 -15.6547 0.8416 C -15.3348 -3.9576 -14.3575 -7.8382 -10.975 -11.4241 C -5.7436 -15.9527 0.2259 -17.6422 6.7906 -15.0373 Z" stroke-linecap="round" />
</g>
		<g transform="matrix(0.4529 0 0 0.4529 -92.9241 9.154)"  >
<path style="stroke: none; stroke-width: 0; stroke-dasharray: none; stroke-linecap: round; stroke-dashoffset: 0; stroke-linejoin: round; stroke-miterlimit: 4; fill: rgb(243,246,246); fill-rule: nonzero; opacity: 1;" vector-effect="non-scaling-stroke"  transform=" translate(0, 0)" d="M 17.7734 -28.1114 C 17.8751 -21.5462 17.945 -14.9812 17.9931 -8.4153 C 18.0132 -6.1835 18.0405 -3.9517 18.0752 -1.72 C 18.1239 1.4947 18.1464 4.7087 18.164 7.9238 C 18.1847 8.9157 18.2053 9.9077 18.2266 10.9296 C 18.2286 17.1194 17.5494 20.9011 13.7734 25.8886 C 10.5222 28.4033 7.2699 28.1204 3.2578 28.0839 C 1.3822 28.0743 1.3822 28.0743 -0.5313 28.0644 C -1.8332 28.0476 -3.1352 28.0309 -4.4766 28.0136 C -5.794 28.0046 -7.1114 27.9956 -8.4688 27.9863 C -11.7216 27.9627 -14.974 27.9298 -18.2266 27.8886 C -17.5666 26.2386 -16.9066 24.5886 -16.2266 22.8886 C -15.5508 22.874 -14.875 22.8594 -14.1787 22.8444 C -11.1108 22.7699 -8.0439 22.6732 -4.9766 22.5761 C -3.3814 22.5423 -3.3814 22.5423 -1.7539 22.5078 C -0.7291 22.4723 0.2957 22.4369 1.3515 22.4003 C 2.2942 22.3742 3.2368 22.348 4.208 22.321 C 7.408 21.7817 8.6797 21.4108 10.7734 18.8886 C 11.3394 15.8725 11.2583 12.8977 11.207 9.8378 C 11.2166 8.0065 11.2264 6.1751 11.2363 4.3437 C 11.2277 1.4602 11.2109 -1.423 11.1887 -4.3065 C 11.1741 -7.0921 11.1895 -9.8765 11.207 -12.6622 C 11.1905 -13.5186 11.174 -14.3751 11.1571 -15.2575 C 11.1928 -19.5667 11.4763 -22.2912 14.2463 -25.702 C 16.7734 -28.1114 16.7734 -28.1114 17.7734 -28.1114 Z" stroke-linecap="round" />
</g>
		<g transform="matrix(0.4529 0 0 0.4529 -40.9587 -38.022)"  >
<path style="stroke: none; stroke-width: 0; stroke-dasharray: none; stroke-linecap: round; stroke-dashoffset: 0; stroke-linejoin: round; stroke-miterlimit: 4; fill: rgb(39,173,223); fill-rule: nonzero; opacity: 1;" vector-effect="non-scaling-stroke"  transform=" translate(0, 0)" d="M 3.0443 -13.9563 C 6.8585 -11.9025 10.0444 -9.8509 12.0443 -5.9563 C 13.1471 -1.4853 13.4117 1.9619 11.9193 6.3562 C 9.4922 9.8351 6.8367 12.1475 3.0443 14.0437 C -1.9597 14.4213 -4.9545 14.1557 -8.9557 11.0437 C -11.7761 8.0288 -11.9557 7.3764 -11.9557 3.0437 C -7.2796 3.6756 -7.2796 3.6756 -5.5807 5.6062 C -3.8758 7.3939 -3.8758 7.3939 -0.4557 7.4187 C 2.9036 7.3067 2.9036 7.3067 4.9193 5.9187 C 6.5547 3.193 6.9806 1.2278 7.0443 -1.9563 C 5.7032 -4.9661 5.7032 -4.9661 3.0443 -6.9563 C -0.4707 -7.4497 -2.7747 -7.7708 -5.7682 -5.7063 C -7.0258 -3.853 -8.0398 -1.9995 -8.9557 0.0437 C -10.2757 -0.2863 -11.5957 -0.6163 -12.9557 -0.9563 C -11.7669 -6.4681 -10.3884 -9.1885 -5.9557 -12.9563 C -2.8462 -14.5111 -0.393 -14.2428 3.0443 -13.9563 Z" stroke-linecap="round" />
</g>
		<g transform="matrix(0.4529 0 0 0.4529 -41.7673 -37.9672)"  >
<path style="stroke: none; stroke-width: 0; stroke-dasharray: none; stroke-linecap: round; stroke-dashoffset: 0; stroke-linejoin: round; stroke-miterlimit: 4; fill: rgb(71,98,116); fill-rule: nonzero; opacity: 1;" vector-effect="non-scaling-stroke"  transform=" translate(0, 0)" d="M 14.3842 -11.8078 C 18.1618 -7.2848 18.2634 -2.3819 18.142 3.2703 C 17.5271 8.4891 14.6154 11.1189 11.0795 14.7352 C 7.198 17.3477 4.4767 18.2185 -0.1705 17.9227 C -4.5468 17.0156 -7.4341 15.6591 -10.608 12.4852 C -12.0168 10.1747 -12.6137 8.5208 -13.1705 5.9227 C -13.8305 5.5927 -14.4905 5.2627 -15.1705 4.9227 C -13.5205 4.5927 -11.8705 4.2627 -10.1705 3.9227 C -9.7786 4.8508 -9.3867 5.7789 -8.983 6.7352 C -6.9751 10.2663 -5.8947 11.3991 -2.1705 12.9227 C 2.0528 13.4602 4.257 13.2089 8.0795 11.2977 C 11.2348 8.5726 12.5547 6.8971 13.8295 2.9227 C 14.0247 -1.681 13.4483 -5.0745 11.017 -9.0148 C 7.7053 -12.1373 5.9707 -12.9736 1.392 -13.3898 C -2.4098 -13.0564 -4.178 -12.3858 -7.1705 -10.0773 C -9.3603 -6.7927 -10.1686 -3.8704 -11.1705 -0.0773 C -13.4805 -0.0773 -15.7905 -0.0773 -18.1705 -0.0773 C -16.8505 -0.4073 -15.5305 -0.7373 -14.1705 -1.0773 C -14.0158 -2.6552 -14.0158 -2.6552 -13.858 -4.2648 C -12.9579 -9.2561 -11.4677 -11.8152 -7.858 -15.3273 C 0.0541 -20.4794 7.8456 -17.4797 14.3842 -11.8078 Z" stroke-linecap="round" />
</g>
		<g transform="matrix(0.4529 0 0 0.4529 153.8382 18.4173)"  >
<path style="stroke: none; stroke-width: 0; stroke-dasharray: none; stroke-linecap: round; stroke-dashoffset: 0; stroke-linejoin: round; stroke-miterlimit: 4; fill: rgb(9,10,12); fill-rule: nonzero; opacity: 1;" vector-effect="non-scaling-stroke"  transform=" translate(0, 0)" d="M 2.7214 -7.7506 C 3.6096 -7.737 4.4978 -7.7235 5.4128 -7.7096 C 7.5997 -7.6743 9.7852 -7.625 11.9714 -7.5631 C 12.2449 -0.9771 12.2449 -0.9771 9.7839 2.7494 C 5.7846 6.571 2.8886 7.5246 -2.5286 7.8744 C -6.0935 7.779 -7.0245 7.4396 -10.1536 5.3744 C -12.0286 2.4369 -12.0286 2.4369 -12.0911 -1.1881 C -11.0286 -4.5631 -11.0286 -4.5631 -9.5715 -6.2623 C -5.5866 -8.3006 -1.6805 -7.8774 2.7214 -7.7506 Z" stroke-linecap="round" />
</g>
		<g transform="matrix(0.4529 0 0 0.4529 4.8082 8.8107)"  >
<path style="stroke: none; stroke-width: 0; stroke-dasharray: none; stroke-linecap: round; stroke-dashoffset: 0; stroke-linejoin: round; stroke-miterlimit: 4; fill: rgb(8,8,11); fill-rule: nonzero; opacity: 1;" vector-effect="non-scaling-stroke"  transform=" translate(0, 0)" d="M 7.8125 -5.1659 C 10.3497 -3.0637 12.2139 -1.1318 14 1.6466 C 14 3.2966 14 4.9466 14 6.6466 C 4.76 6.6466 -4.48 6.6466 -14 6.6466 C -11.6804 -1.4722 -11.6804 -1.4722 -7 -5.3534 C -2.0466 -7.0046 2.9639 -7.2131 7.8125 -5.1659 Z" stroke-linecap="round" />
</g>
</g>
</g>
</svg>